<svg xmlns="http://www.w3.org/2000/svg" width="320" height="240" viewBox="0 0 320 240"><rect width="320" height="240" fill="#FFF8EE"/><path fill="#FFFFFF" stroke="#1A1A22" stroke-linejoin="round" stroke-width="2.2" d="M245.4 61c-8.8 0-15.4-6.6-15.4-14.3 0-6.6 4.4-12.1 11-13.2 1.1-8.8 8.8-15.4 17.6-15.4 6.6 0 12.1 3.3 15.4 8.8 2.2-2.2 5.5-3.3 8.8-3.3 7.7 0 13.2 5.5 13.2 13.2 6.6 1.1 11 6.6 11 13.2 0 7.7-6.6 14.3-14.3 14.3Z"/><rect width="48" height="48" x="-6" y="112" fill="#DDDDEE" stroke="#9999AA" stroke-width="2"/><rect width="44" height="38" x="40" y="122" fill="#DDDDEE" stroke="#9999AA" stroke-width="2"/><rect width="40" height="52" x="82" y="108" fill="#DDDDEE" stroke="#9999AA" stroke-width="2"/><rect width="42" height="46" x="246" y="114" fill="#DDDDEE" stroke="#9999AA" stroke-width="2"/><rect width="40" height="60" x="286" y="100" fill="#DDDDEE" stroke="#9999AA" stroke-width="2"/><rect width="320" height="80" y="160" fill="#88CC66"/><ellipse cx="160" cy="222" fill="none" stroke="#DDAA77" stroke-width="22" rx="148" ry="22"/><ellipse cx="160" cy="222" fill="none" stroke="#AA7744" stroke-width="2" rx="148" ry="22"/><rect width="34" height="8" x="50" y="183" fill="#CCCCCC" stroke="#1A1A22" stroke-width="2" rx="3"/><rect width="4" height="10" x="55" y="191" fill="#999999"/><rect width="4" height="10" x="75" y="191" fill="#999999"/><rect width="6" height="18" x="104" y="188" fill="#774422"/><circle cx="107" cy="176" r="16" fill="#449944" stroke="#1A1A22" stroke-width="3"/><rect width="6" height="16" x="26" y="150" fill="#774422"/><circle cx="29" cy="140" r="14" fill="#226633" stroke="#1A1A22" stroke-width="3"/><path fill="none" stroke="#1A1A22" stroke-linecap="round" stroke-width="26" d="m215 218 13-30-26-26 28-28-30-28 22-26-14-32"/><path fill="none" stroke="#CC1177" stroke-linecap="round" stroke-width="20" d="m215 218 13-30-26-26 28-28-30-28 22-26-14-32"/><path fill="none" stroke="#FF99CC" stroke-linecap="round" stroke-width="12" d="m215 218 13-30-26-26 28-28-30-28 22-26-14-32"/><path fill="none" stroke="#FFF8EE" stroke-linecap="round" stroke-width="5" d="m215 218 13-30-26-26 28-28-30-28 22-26-14-32"/><ellipse cx="216" cy="221" fill="#1A1A22" opacity=".2" rx="30" ry="7"/><g transform="rotate(6 -1899.9 1534.59)"><rect width="14" height="20" x="-7" y="-20" fill="#3377AA" stroke="#1A1A22" stroke-width="3" rx="6"/><circle cy="-28" r="8" fill="#D39C70" stroke="#1A1A22" stroke-width="3"/><circle cx="-2" cy="-31" r="1.8" fill="#FFFFFF"/><circle cx="-3" cy="-29" r="1.3" fill="#1A1A22"/><circle cx="3" cy="-29" r="1.3" fill="#1A1A22"/><path fill="none" stroke="#D39C70" stroke-linecap="round" stroke-width="5" d="m-7-14-10 8"/><path fill="none" stroke="#D39C70" stroke-linecap="round" stroke-width="5" d="m7-14 9-6"/><path fill="none" stroke="#333344" stroke-linecap="round" stroke-width="6" d="m-3 0-11 12"/><path fill="none" stroke="#333344" stroke-linecap="round" stroke-width="6" d="m3 0 10 14"/></g><g transform="translate(188 230)"><ellipse fill="#9999AA" stroke="#1A1A22" stroke-width="2" rx="10" ry="8"/><circle cx="12" cy="-8" r="6" fill="#9999AA" stroke="#1A1A22" stroke-width="2"/><path fill="#FF9944" d="m18-8 6 2-6 2Z"/><circle cx="10" cy="-9" r="1.1" fill="#1A1A22"/></g><g transform="matrix(.85 0 0 .85 252 222)"><ellipse fill="#9999AA" stroke="#1A1A22" stroke-width="2" rx="10" ry="8"/><circle cx="-12" cy="-8" r="6" fill="#9999AA" stroke="#1A1A22" stroke-width="2"/><path fill="#FF9944" d="m-18-8-6 2 6 2Z"/><circle cx="-10" cy="-9" r="1.1" fill="#1A1A22"/></g></svg>