<?xml version="1.0" encoding="UTF-8"?>
<svg xmlns="http://www.w3.org/2000/svg" viewBox="0 0 384 160" width="384" height="160">
  <g id="folding-umbrella-r0-c0" transform="translate(0,0)"><rect x="33" y="40" width="6" height="72" rx="3" fill="#8899AA"/><rect x="33" y="40" width="6" height="25" rx="3" fill="#CCDDEE"/><rect x="36" y="65" width="3" height="41" rx="3" fill="#556677"/><rect x="33" y="106" width="6" height="6" rx="3" fill="#556677"/><rect x="33" y="40" width="6" height="72" rx="3" fill="none" stroke="#1A1A22" stroke-width="2"/><rect x="20" y="26" width="32" height="16" rx="8" fill="#EE6622"/><rect x="20" y="26" width="32" height="6" rx="8" fill="#FF9944"/><rect x="42" y="32" width="10" height="7" rx="8" fill="#BB4411"/><rect x="20" y="39" width="32" height="3" rx="8" fill="#BB4411"/><rect x="23" y="29" width="3" height="3" fill="#FFFFFF"/><rect x="20" y="26" width="32" height="16" rx="8" fill="none" stroke="#1A1A22" stroke-width="2"/><circle cx="36" cy="112" r="6" fill="#556677"/><circle cx="35.1" cy="111.1" r="5.1" fill="#8899AA"/><circle cx="34.2" cy="110.2" r="3.3" fill="#CCDDEE"/><circle cx="36" cy="112" r="6" fill="none" stroke="#1A1A22" stroke-width="2"/></g>
  <g id="folding-umbrella-r0-c1" transform="translate(128,0)"><rect x="77" y="40" width="6" height="72" rx="3" fill="#8899AA"/><rect x="77" y="40" width="6" height="25" rx="3" fill="#CCDDEE"/><rect x="80" y="65" width="3" height="41" rx="3" fill="#556677"/><rect x="77" y="106" width="6" height="6" rx="3" fill="#556677"/><rect x="77" y="40" width="6" height="72" rx="3" fill="none" stroke="#1A1A22" stroke-width="2"/><rect x="64" y="26" width="32" height="16" rx="8" fill="#EE6622"/><rect x="64" y="26" width="32" height="6" rx="8" fill="#FF9944"/><rect x="86" y="32" width="10" height="7" rx="8" fill="#BB4411"/><rect x="64" y="39" width="32" height="3" rx="8" fill="#BB4411"/><rect x="67" y="29" width="3" height="3" fill="#FFFFFF"/><rect x="64" y="26" width="32" height="16" rx="8" fill="none" stroke="#1A1A22" stroke-width="2"/><circle cx="80" cy="112" r="6" fill="#556677"/><circle cx="79.1" cy="111.1" r="5.1" fill="#8899AA"/><circle cx="78.2" cy="110.2" r="3.3" fill="#CCDDEE"/><circle cx="80" cy="112" r="6" fill="none" stroke="#1A1A22" stroke-width="2"/></g>
  <g id="folding-umbrella-r0-c2" transform="translate(256,0)"><rect x="89" y="40" width="6" height="72" rx="3" fill="#8899AA"/><rect x="89" y="40" width="6" height="25" rx="3" fill="#CCDDEE"/><rect x="92" y="65" width="3" height="41" rx="3" fill="#556677"/><rect x="89" y="106" width="6" height="6" rx="3" fill="#556677"/><rect x="89" y="40" width="6" height="72" rx="3" fill="none" stroke="#1A1A22" stroke-width="2"/><rect x="76" y="26" width="32" height="16" rx="8" fill="#EE6622"/><rect x="76" y="26" width="32" height="6" rx="8" fill="#FF9944"/><rect x="98" y="32" width="10" height="7" rx="8" fill="#BB4411"/><rect x="76" y="39" width="32" height="3" rx="8" fill="#BB4411"/><rect x="79" y="29" width="3" height="3" fill="#FFFFFF"/><rect x="76" y="26" width="32" height="16" rx="8" fill="none" stroke="#1A1A22" stroke-width="2"/><circle cx="92" cy="112" r="6" fill="#556677"/><circle cx="91.1" cy="111.1" r="5.1" fill="#8899AA"/><circle cx="90.2" cy="110.2" r="3.3" fill="#CCDDEE"/><circle cx="92" cy="112" r="6" fill="none" stroke="#1A1A22" stroke-width="2"/></g>
</svg>
