<?xml version="1.0" encoding="UTF-8"?>
<svg xmlns="http://www.w3.org/2000/svg" viewBox="0 0 384 480" width="384" height="480">
  <g id="base-r0-c0" transform="translate(0,0)"><rect x="34" y="20" width="60" height="58" rx="26" fill="#C020C0"/><rect x="34" y="20" width="60" height="20" rx="26" fill="#FF40FF"/><rect x="76" y="40" width="18" height="32" rx="26" fill="#800080"/><rect x="34" y="72" width="60" height="6" rx="26" fill="#800080"/><rect x="37" y="23" width="4" height="4" fill="#FFFFFF"/><rect x="34" y="20" width="60" height="58" rx="26" fill="none" stroke="#1A1A22" stroke-width="2"/><rect x="42" y="78" width="44" height="42" rx="10" fill="#DDDDEE"/><rect x="42" y="78" width="44" height="15" rx="10" fill="#FFFFFF"/><rect x="73" y="93" width="13" height="21" rx="10" fill="#9999AA"/><rect x="42" y="114" width="44" height="6" rx="10" fill="#9999AA"/><rect x="45" y="81" width="4" height="4" fill="#FFFFFF"/><rect x="42" y="78" width="44" height="42" rx="10" fill="none" stroke="#1A1A22" stroke-width="2"/><rect x="46" y="120" width="36" height="10" rx="6" fill="#555566"/><rect x="46" y="120" width="36" height="4" rx="6" fill="#9999AA"/><rect x="71" y="124" width="11" height="3" rx="6" fill="#333344"/><rect x="46" y="127" width="36" height="3" rx="6" fill="#333344"/><rect x="46" y="120" width="36" height="10" rx="6" fill="none" stroke="#1A1A22" stroke-width="2"/><rect x="46" y="130" width="36" height="12" rx="6" fill="#555566"/><rect x="46" y="130" width="36" height="4" rx="6" fill="#9999AA"/><rect x="71" y="134" width="11" height="5" rx="6" fill="#333344"/><rect x="46" y="139" width="36" height="3" rx="6" fill="#333344"/><rect x="46" y="130" width="36" height="12" rx="6" fill="none" stroke="#1A1A22" stroke-width="2"/><rect x="44" y="140" width="40" height="10" rx="5" fill="#CCCCCC"/><rect x="44" y="140" width="40" height="4" rx="5" fill="#EEEEEE"/><rect x="72" y="144" width="12" height="3" rx="5" fill="#999999"/><rect x="44" y="147" width="40" height="3" rx="5" fill="#999999"/><rect x="44" y="140" width="40" height="10" rx="5" fill="none" stroke="#1A1A22" stroke-width="2"/></g>
  <g id="base-r0-c1" transform="translate(128,0)"><rect x="34" y="20" width="60" height="58" rx="26" fill="#C020C0"/><rect x="34" y="20" width="60" height="20" rx="26" fill="#FF40FF"/><rect x="76" y="40" width="18" height="32" rx="26" fill="#800080"/><rect x="34" y="72" width="60" height="6" rx="26" fill="#800080"/><rect x="37" y="23" width="4" height="4" fill="#FFFFFF"/><rect x="34" y="20" width="60" height="58" rx="26" fill="none" stroke="#1A1A22" stroke-width="2"/><rect x="48" y="78" width="32" height="42" rx="10" fill="#DDDDEE"/><rect x="48" y="78" width="32" height="15" rx="10" fill="#FFFFFF"/><rect x="70" y="93" width="10" height="21" rx="10" fill="#9999AA"/><rect x="48" y="114" width="32" height="6" rx="10" fill="#9999AA"/><rect x="51" y="81" width="4" height="4" fill="#FFFFFF"/><rect x="48" y="78" width="32" height="42" rx="10" fill="none" stroke="#1A1A22" stroke-width="2"/><rect x="48" y="120" width="32" height="10" rx="6" fill="#555566"/><rect x="48" y="120" width="32" height="4" rx="6" fill="#9999AA"/><rect x="70" y="124" width="10" height="3" rx="6" fill="#333344"/><rect x="48" y="127" width="32" height="3" rx="6" fill="#333344"/><rect x="48" y="120" width="32" height="10" rx="6" fill="none" stroke="#1A1A22" stroke-width="2"/><rect x="48" y="130" width="32" height="12" rx="6" fill="#555566"/><rect x="48" y="130" width="32" height="4" rx="6" fill="#9999AA"/><rect x="70" y="134" width="10" height="5" rx="6" fill="#333344"/><rect x="48" y="139" width="32" height="3" rx="6" fill="#333344"/><rect x="48" y="130" width="32" height="12" rx="6" fill="none" stroke="#1A1A22" stroke-width="2"/><rect x="46" y="140" width="36" height="10" rx="5" fill="#CCCCCC"/><rect x="46" y="140" width="36" height="4" rx="5" fill="#EEEEEE"/><rect x="71" y="144" width="11" height="3" rx="5" fill="#999999"/><rect x="46" y="147" width="36" height="3" rx="5" fill="#999999"/><rect x="46" y="140" width="36" height="10" rx="5" fill="none" stroke="#1A1A22" stroke-width="2"/></g>
  <g id="base-r0-c2" transform="translate(256,0)"><rect x="34" y="20" width="60" height="58" rx="26" fill="#C020C0"/><rect x="34" y="20" width="60" height="20" rx="26" fill="#FF40FF"/><rect x="76" y="40" width="18" height="32" rx="26" fill="#800080"/><rect x="34" y="72" width="60" height="6" rx="26" fill="#800080"/><rect x="37" y="23" width="4" height="4" fill="#FFFFFF"/><rect x="34" y="20" width="60" height="58" rx="26" fill="none" stroke="#1A1A22" stroke-width="2"/><rect x="42" y="78" width="44" height="42" rx="10" fill="#DDDDEE"/><rect x="42" y="78" width="44" height="15" rx="10" fill="#FFFFFF"/><rect x="73" y="93" width="13" height="21" rx="10" fill="#9999AA"/><rect x="42" y="114" width="44" height="6" rx="10" fill="#9999AA"/><rect x="45" y="81" width="4" height="4" fill="#FFFFFF"/><rect x="42" y="78" width="44" height="42" rx="10" fill="none" stroke="#1A1A22" stroke-width="2"/><rect x="46" y="120" width="36" height="10" rx="6" fill="#555566"/><rect x="46" y="120" width="36" height="4" rx="6" fill="#9999AA"/><rect x="71" y="124" width="11" height="3" rx="6" fill="#333344"/><rect x="46" y="127" width="36" height="3" rx="6" fill="#333344"/><rect x="46" y="120" width="36" height="10" rx="6" fill="none" stroke="#1A1A22" stroke-width="2"/><rect x="46" y="130" width="36" height="12" rx="6" fill="#555566"/><rect x="46" y="130" width="36" height="4" rx="6" fill="#9999AA"/><rect x="71" y="134" width="11" height="5" rx="6" fill="#333344"/><rect x="46" y="139" width="36" height="3" rx="6" fill="#333344"/><rect x="46" y="130" width="36" height="12" rx="6" fill="none" stroke="#1A1A22" stroke-width="2"/><rect x="44" y="140" width="40" height="10" rx="5" fill="#CCCCCC"/><rect x="44" y="140" width="40" height="4" rx="5" fill="#EEEEEE"/><rect x="72" y="144" width="12" height="3" rx="5" fill="#999999"/><rect x="44" y="147" width="40" height="3" rx="5" fill="#999999"/><rect x="44" y="140" width="40" height="10" rx="5" fill="none" stroke="#1A1A22" stroke-width="2"/></g>
  <g id="base-r1-c0" transform="translate(0,160)"><rect x="30" y="82" width="18" height="34" rx="6" fill="#C020C0"/><rect x="30" y="82" width="18" height="12" rx="6" fill="#FF40FF"/><rect x="43" y="94" width="5" height="18" rx="6" fill="#800080"/><rect x="30" y="112" width="18" height="4" rx="6" fill="#800080"/><rect x="33" y="85" width="4" height="4" fill="#FFFFFF"/><rect x="30" y="82" width="18" height="34" rx="6" fill="none" stroke="#1A1A22" stroke-width="2"/><circle cx="36" cy="112" r="6" fill="#800080"/><circle cx="35.1" cy="111.1" r="5.1" fill="#C020C0"/><circle cx="34.2" cy="110.2" r="3.3" fill="#FF40FF"/><circle cx="36" cy="112" r="6" fill="none" stroke="#1A1A22" stroke-width="2"/></g>
  <g id="base-r1-c1" transform="translate(128,160)"><rect x="64" y="82" width="22" height="34" rx="6" fill="#C020C0"/><rect x="64" y="82" width="22" height="12" rx="6" fill="#FF40FF"/><rect x="79" y="94" width="7" height="18" rx="6" fill="#800080"/><rect x="64" y="112" width="22" height="4" rx="6" fill="#800080"/><rect x="67" y="85" width="4" height="4" fill="#FFFFFF"/><rect x="64" y="82" width="22" height="34" rx="6" fill="none" stroke="#1A1A22" stroke-width="2"/><circle cx="80" cy="112" r="6" fill="#800080"/><circle cx="79.1" cy="111.1" r="5.1" fill="#C020C0"/><circle cx="78.2" cy="110.2" r="3.3" fill="#FF40FF"/><circle cx="80" cy="112" r="6" fill="none" stroke="#1A1A22" stroke-width="2"/></g>
  <g id="base-r1-c2" transform="translate(256,160)"><rect x="80" y="82" width="18" height="34" rx="6" fill="#C020C0"/><rect x="80" y="82" width="18" height="12" rx="6" fill="#FF40FF"/><rect x="93" y="94" width="5" height="18" rx="6" fill="#800080"/><rect x="80" y="112" width="18" height="4" rx="6" fill="#800080"/><rect x="83" y="85" width="4" height="4" fill="#FFFFFF"/><rect x="80" y="82" width="18" height="34" rx="6" fill="none" stroke="#1A1A22" stroke-width="2"/><circle cx="92" cy="112" r="6" fill="#800080"/><circle cx="91.1" cy="111.1" r="5.1" fill="#C020C0"/><circle cx="90.2" cy="110.2" r="3.3" fill="#FF40FF"/><circle cx="92" cy="112" r="6" fill="none" stroke="#1A1A22" stroke-width="2"/></g>
  <g id="base-r2-c0" transform="translate(0,320)"><rect x="80" y="82" width="18" height="34" rx="6" fill="#C020C0"/><rect x="80" y="82" width="18" height="12" rx="6" fill="#FF40FF"/><rect x="93" y="94" width="5" height="18" rx="6" fill="#800080"/><rect x="80" y="112" width="18" height="4" rx="6" fill="#800080"/><rect x="83" y="85" width="4" height="4" fill="#FFFFFF"/><rect x="80" y="82" width="18" height="34" rx="6" fill="none" stroke="#1A1A22" stroke-width="2"/><circle cx="92" cy="112" r="6" fill="#800080"/><circle cx="91.1" cy="111.1" r="5.1" fill="#C020C0"/><circle cx="90.2" cy="110.2" r="3.3" fill="#FF40FF"/><circle cx="92" cy="112" r="6" fill="none" stroke="#1A1A22" stroke-width="2"/></g>
  <g id="base-r2-c1" transform="translate(128,320)"><rect x="46" y="82" width="18" height="32" rx="6" fill="#C020C0"/><rect x="46" y="82" width="18" height="11" rx="6" fill="#FF40FF"/><rect x="59" y="93" width="5" height="17" rx="6" fill="#800080"/><rect x="46" y="110" width="18" height="4" rx="6" fill="#800080"/><rect x="49" y="85" width="4" height="4" fill="#FFFFFF"/><rect x="46" y="82" width="18" height="32" rx="6" fill="none" stroke="#1A1A22" stroke-width="2"/><circle cx="52" cy="110" r="6" fill="#800080"/><circle cx="51.1" cy="109.1" r="5.1" fill="#C020C0"/><circle cx="50.2" cy="108.2" r="3.3" fill="#FF40FF"/><circle cx="52" cy="110" r="6" fill="none" stroke="#1A1A22" stroke-width="2"/></g>
  <g id="base-r2-c2" transform="translate(256,320)"><rect x="30" y="82" width="18" height="34" rx="6" fill="#C020C0"/><rect x="30" y="82" width="18" height="12" rx="6" fill="#FF40FF"/><rect x="43" y="94" width="5" height="18" rx="6" fill="#800080"/><rect x="30" y="112" width="18" height="4" rx="6" fill="#800080"/><rect x="33" y="85" width="4" height="4" fill="#FFFFFF"/><rect x="30" y="82" width="18" height="34" rx="6" fill="none" stroke="#1A1A22" stroke-width="2"/><circle cx="36" cy="112" r="6" fill="#800080"/><circle cx="35.1" cy="111.1" r="5.1" fill="#C020C0"/><circle cx="34.2" cy="110.2" r="3.3" fill="#FF40FF"/><circle cx="36" cy="112" r="6" fill="none" stroke="#1A1A22" stroke-width="2"/></g>
</svg>
